# Blender v3.2.1 OBJ File: 'd10.blend'
# www.blender.org
mtllib d10.mtl
o Cone_Cone.001
v 0.000000 1.000000 0.000000
v 0.000000 -1.000000 0.000000
v 1.074332 0.000000 -0.349072
v 1.074332 -0.000000 -0.349072
v 0.000000 0.000000 -1.129620
v 0.663974 0.000000 0.913882
v 0.663974 -0.000000 0.913882
v -0.663974 0.000000 0.913882
v -0.663974 -0.000000 0.913882
v -1.074332 0.000000 -0.349072
v -1.074332 -0.000000 -0.349072
vt 0.000188 0.270613
vt 0.993130 0.275827
vt 0.493071 0.956554
vt 0.000188 0.270614
vt 0.996171 0.236654
vt 0.502683 0.919581
vt 0.005677 0.239209
vt 0.005677 0.239209
vt -0.001919 0.237078
vt -0.001920 0.237078
vt 1.004531 0.245364
vt 0.495604 0.933851
vt 0.501022 0.906017
vt 0.017066 0.233457
vt 0.017065 0.233458
vt 0.991113 0.237914
vt 0.502259 0.922548
vt -0.006150 0.222221
vt -0.006151 0.222221
vt 1.011203 0.222609
vt -0.015955 0.267520
vt 0.981863 0.269089
vt 0.481874 0.954994
vt -0.015955 0.267520
vt 0.005632 0.247605
vt 0.983748 0.241685
vt 0.498765 0.917775
vt 0.990452 0.241731
vt 0.491157 0.928951
vt -0.008138 0.241731
vt -0.008138 0.241731
vt -0.013562 0.243889
vt -0.013562 0.243889
vt 1.000211 0.243889
vt 0.493325 0.941558
vt -0.003037 0.251124
vt 1.000925 0.251274
vt 0.498842 0.942116
vn -0.7020 0.6746 0.2281
vn 0.7020 -0.6746 0.2281
vn 0.7020 0.6746 0.2281
vn -0.7020 -0.6746 0.2281
vn 0.4339 0.6746 -0.5972
vn -0.4339 -0.6746 -0.5972
vn -0.4339 0.6746 -0.5972
vn 0.0000 -0.6746 0.7382
vn -0.0000 0.6746 0.7382
vn 0.4339 -0.6746 -0.5972
usemtl 01
s off
f 11/1/1 8/2/1 1/3/1 10/4/1
usemtl 02
f 7/5/2 2/6/2 4/7/2 3/8/2
usemtl 03
f 6/9/3 7/10/3 3/11/3 1/12/3
usemtl 04
f 2/13/4 9/14/4 8/15/4 11/16/4
usemtl 05
f 1/17/5 3/18/5 4/19/5 5/20/5
usemtl 06
f 10/21/6 5/22/6 2/23/6 11/24/6
usemtl 07
f 5/25/7 10/26/7 1/27/7
usemtl 08
f 9/28/8 2/29/8 7/30/8 6/31/8
usemtl 09
f 8/32/9 9/33/9 6/34/9 1/35/9
usemtl 10
f 5/36/10 4/37/10 2/38/10
